inDegrees=no
num_controls=7
num_derivatives=13
num_iterations=138
num_multipliers=7
num_parameters=0
num_slacks=7
num_states=26
objective=5.182033
objective_accelerations=0.470397
objective_balance=0.046330
objective_effort=0.444081
objective_height=4.159350
objective_ligament=0.061876
solver_duration=1533.629848
status=Solve_Succeeded
success=true
DataType=double
version=3
OpenSimVersion=4.4-2022-07-23-0e9fedc
endheader
time	/jointset/ground_pelvis/pelvis_tilt/value	/jointset/ground_pelvis/pelvis_tx/value	/jointset/ground_pelvis/pelvis_ty/value	/jointset/hip_l/hip_flexion_l/value	/jointset/hip_l/hip_adduction_l/value	/jointset/hip_l/hip_rotation_l/value	/jointset/back/lumbar_extension/value	/jointset/patellofemoral_l/patellar_flexion_l/value	/jointset/knee_l/knee_flexion_l/value	/jointset/knee_l/knee_adduction_l/value	/jointset/knee_l/knee_rotation_l/value	/jointset/ankle_l/ankle_angle_l/value	/jointset/subtalar_l/subtalar_angle_l/value	/jointset/ground_pelvis/pelvis_tilt/speed	/jointset/ground_pelvis/pelvis_tx/speed	/jointset/ground_pelvis/pelvis_ty/speed	/jointset/hip_l/hip_flexion_l/speed	/jointset/hip_l/hip_adduction_l/speed	/jointset/hip_l/hip_rotation_l/speed	/jointset/back/lumbar_extension/speed	/jointset/patellofemoral_l/patellar_flexion_l/speed	/jointset/knee_l/knee_flexion_l/speed	/jointset/knee_l/knee_adduction_l/speed	/jointset/knee_l/knee_rotation_l/speed	/jointset/ankle_l/ankle_angle_l/speed	/jointset/subtalar_l/subtalar_angle_l/speed	/forceset/tau_hip_flexion_l	/forceset/tau_hip_adduction_l	/forceset/tau_hip_rotation_l	/forceset/tau_knee_flexion_l	/forceset/tau_ankle_angle_l	/forceset/tau_subtalar_angle_l	/forceset/tau_lumbar_extension	lambda_cid13_p0	lambda_cid13_p1	lambda_cid13_p2	lambda_cid13_p3	lambda_cid13_p4	lambda_cid13_p5	lambda_cid14_p0	/jointset/ground_pelvis/pelvis_tilt/accel	/jointset/ground_pelvis/pelvis_tx/accel	/jointset/ground_pelvis/pelvis_ty/accel	/jointset/hip_l/hip_flexion_l/accel	/jointset/hip_l/hip_adduction_l/accel	/jointset/hip_l/hip_rotation_l/accel	/jointset/back/lumbar_extension/accel	/jointset/patellofemoral_l/patellar_flexion_l/accel	/jointset/knee_l/knee_flexion_l/accel	/jointset/knee_l/knee_adduction_l/accel	/jointset/knee_l/knee_rotation_l/accel	/jointset/ankle_l/ankle_angle_l/accel	/jointset/subtalar_l/subtalar_angle_l/accel	gamma_cid13_p0	gamma_cid13_p1	gamma_cid13_p2	gamma_cid13_p3	gamma_cid13_p4	gamma_cid13_p5	gamma_cid14_p0
1	-0.6980997663133891	-0.167053796695783	0.6388067141887236	1.852740597571781	-0.3143598561985785	0.03454311057026255	-0.4363276302764034	0.9392603235163897	0.9392603235165086	-0.1745252253971299	0.174528210137406	-0.04315311180535417	-0.07224584430589688	-0.01144422778891312	0.0003875879530482053	-0.002841508269403062	0.01666519969462175	0.000281796554165075	0.002768501765207646	6.682721352354554e-05	0.007221719735658658	0.007221719735660119	-3.870863912646995e-06	-1.050867446707558e-05	0.002574653443478296	0.0006889032647017187	-0.4510755835785157	0.007199924988623313	-0.01978078061176725	-0.2039058754839695	0.2149415634527272	0.04803579546892529	0.3582719658246614	23.03021163456317	-25.08556166305219	3.815293503750621	-1.101204611792449	-716.5065340945742	-52.28180485534739	-12.98725183286067	2.231192387558874	0.4824231254375161	1.418896435227455	-5.954796300456469	-0.09198550630814972	-1.298259459076841	-0.0419875130382223	-3.649186298003873	-3.649186298003884	-0.02589009406813603	0.01281713699771764	-0.1315425330425775	-0.07360144171008433	4.84497717704273e-10	1.921309239861885e-09	-2.208220682447485e-09	-1.029969199472835e-10	9.429644261417727e-10	-5.542798262544465e-10	6.023865237061685e-10
1.01	-0.6981033724663491	-0.1670258702926888	0.6388491670096367	1.852610363696648	-0.3143609947421566	0.03450565031144164	-0.4363279318093462	0.9391500825446937	0.9391500825447179	-0.1745253254197948	0.1745282733549811	-0.04313386676676994	-0.07224199576218095	0.01073352529626847	0.005199136108190865	0.01133443916333405	-0.0427285716247665	-0.000506291391009151	-0.01026030476831601	-0.0001056979691475102	-0.02927824389921984	-0.02927824389921909	-1.41486298428157e-05	1.88320467798828e-05	0.001272800132130177	8.371639485104873e-05	-0.4514839486520925	0.007345721626545535	-0.01975447684027742	-0.2035909363912691	0.2144748321374964	0.04814133001757166	0.3586089506853573	22.8725416511444	-25.10084911465116	3.814373219249248	-1.001557035559913	-716.6787073852233	-52.29237738601077	-12.99418727347226	2.212645795389659	0.4807374537004298	1.417298178573417	-5.934157354346979	-0.07173860569153576	-1.305155661271244	-0.001669648110390867	-3.651650516462438	-3.651650516462332	0.01170042847337376	-0.002657312572452086	-0.1297398062225114	-0.05354094564369107	-1.505308906099864e-09	-3.362152165725173e-09	6.920031629199989e-09	1.369079055065013e-09	-3.581391080344653e-09	6.794680050710458e-09	-1.743429146019166e-09
1.02	-0.6978848852831929	-0.1669497850494132	0.6390334501611331	1.851885694147012	-0.3143699177985967	0.03433790910510244	-0.4363293155192711	0.9386745921126033	0.9386745921125049	-0.1745254688108829	0.1745285000092882	-0.04312768687650856	-0.07224411181436828	0.03297443943715715	0.01001935598932923	0.02552455784730285	-0.1022219352107811	-0.001275106018957247	-0.02328768773309168	-0.0001496082409189704	-0.06582817234341308	-0.06582817234341283	-1.254454262523947e-05	2.217867760051014e-05	-3.837622088980462e-05	-0.0005040159158499248	-0.451892313725517	0.007491518264448311	-0.0197281730686855	-0.2032759972986305	0.2140081008222155	0.04824686456618971	0.3589459355462393	22.70958838026026	-25.11656527956711	3.815067822788934	-0.9042433327157916	-716.9327829117713	-52.29286483228078	-13.02405124440999	2.243824598700288	0.4841574706366578	1.421730685473794	-5.97471475378173	-0.08813084286291757	-1.297974745327249	-0.01626453085752629	-3.659179259866818	-3.659179259866785	-0.02351372343857404	0.007618318912449934	-0.1334071413769456	-0.07011052988013881	-2.464406462237492e-09	-9.376352752645595e-09	1.711682024747776e-08	-4.921194524471634e-10	-5.928351267081977e-09	1.526947281313194e-08	-4.622112817876039e-09
1.03	-0.6974437414150186	-0.1668254511788794	0.6393596095050067	1.850565874492454	-0.3143864254338083	0.034039951060135	-0.4363306163777217	0.9378335544303522	0.9378335544303118	-0.1745255519412748	0.1745286731839532	-0.04313467428466314	-0.07225201482627444	0.05525777672220304	0.01484914583409248	0.03970011858212064	-0.1617302809222312	-0.002022155920100654	-0.03629946744169472	-0.0001009320033707019	-0.1023675814518218	-0.102367581451821	-2.507523605371244e-06	1.262641371959308e-05	-0.001361475641019393	-0.001073031247972776	-0.4516128845057394	0.007601573762041193	-0.01971971908569346	-0.2030693243644948	0.2137048056536101	0.04833685213966668	0.3588080888897211	22.63042437902833	-25.14403779490456	3.82201986977851	-0.8801818939407799	-716.6824782474873	-52.34394062056758	-13.0768912375521	2.221103667671408	0.4826484100112731	1.414388251017785	-5.937138443285424	-0.06735360963864574	-1.30211829641314	0.01687842137880799	-3.649552819343016	-3.649552819342857	0.01349566635714436	-0.005223651972549318	-0.132116369984462	-0.04976455833661798	-3.41298657890913e-09	-1.539800986182453e-08	2.732451229745584e-08	-2.387330964883078e-09	-8.25309313423001e-09	2.375575366622136e-08	-7.506233918326095e-09
1.04	-0.6967796610991526	-0.1666527676761747	0.6398273083529353	1.848651322588069	-0.3144102758772088	0.03361200747548541	-0.4363311415295884	0.936627476440411	0.9366274764404557	-0.1745254880511571	0.1745287545053373	-0.04315496369255144	-0.07226550149619397	0.07756172897784565	0.01968928242350577	0.05383245865837468	-0.2211683851720035	-0.002743667657176633	-0.04928479566175352	5.533046939149713e-06	-0.1388362338808415	-0.1388362338808404	1.685956680307676e-05	3.808032474260279e-06	-0.002698776167294519	-0.001620747518431682	-0.4513334552860325	0.00771162925956671	-0.01971126510280194	-0.2028626514303411	0.2134015104849955	0.04842683971307603	0.3586702422331263	22.54592372850973	-25.17191545563243	3.830566796664546	-0.8582133304261942	-716.5148927249487	-52.38519074212858	-13.15264975104306	2.247947592819598	0.4862268195666893	1.413086553761054	-5.96066646144618	-0.08302321004942569	-1.292684447618356	-0.004706768303209985	-3.645027923989048	-3.645027923989052	-0.02164770916088641	0.00776509543953232	-0.1362473626060098	-0.0658507175473369	-4.221458956949872e-09	-2.054171543444525e-08	3.741660580041988e-08	-4.337219124091946e-09	-9.913714514551522e-09	3.146711735650656e-08	-1.02012929498539e-08
1.05	-0.6958927051736937	-0.1664316679230285	0.6404359755954416	1.846143281259388	-0.3144412213489542	0.03305441137207443	-0.4363307351489371	0.9350572523231617	0.9350572523231557	-0.1745252363763162	0.174528784069085	-0.04318878863198209	-0.07228438599465777	0.09980418021104152	0.02452842462339627	0.06787970257815538	-0.2803716060185188	-0.003439468147554559	-0.06222269843735444	4.532497731985231e-05	-0.175178062052149	-0.1751780620521397	3.358961449672516e-05	2.767886152764689e-06	-0.004077227644329375	-0.002152831397585196	-0.4496673203294737	0.007639335740738986	-0.0197554637497045	-0.2031405095744439	0.2137319165842814	0.04839368024424928	0.357495518967964	22.71454621719152	-25.19865566123926	3.848098989244662	-0.9939074419027673	-715.4829821927578	-52.49011786167573	-13.2513110932823	2.208600740049872	0.4824201054347246	1.397347894137756	-5.889910716436907	-0.06196730945098389	-1.292595588679663	0.003759466124345022	-3.624178530776898	-3.624178530775409	0.01334595486194275	-0.003951382626320945	-0.1402954104290855	-0.04639071111568231	-5.025552968158398e-09	-2.565798502154854e-08	4.750508684878974e-08	-6.288815928512469e-09	-1.155358212965971e-08	3.915426488545413e-08	-1.289044379172789e-08
